<svg width="72" height="72" viewBox="0 0 72 72" fill="none" xmlns="http://www.w3.org/2000/svg">
<path d="M36 6C19.431 6 6 19.431 6 36C6 49.3305 14.7015 60.6165 26.73 64.524H45.27C57.2985 60.6165 66 49.3305 66 36C66 19.431 52.569 6 36 6Z" fill="url(#paint0_linear_13_377)"/>
<path opacity="0.05" d="M45.015 62.994L45 54.297C45 52.8885 44.67 51.513 44.037 50.2665C52.4985 48.567 56.616 43.5645 56.616 35.001C56.616 31.6185 55.6185 28.632 53.652 26.121C53.802 25.6455 53.913 25.1535 53.982 24.6495C54.264 22.596 53.9475 21.2535 53.6925 20.1735L53.652 19.9995C53.373 18.8055 53.0385 17.9535 53.025 17.9175L52.8585 17.4945L52.692 17.0715L52.239 17.0235L51.7845 16.9755C51.7845 16.9755 51.486 16.944 51.033 16.944C50.4045 16.944 49.473 17.007 48.5925 17.3055L48.2985 17.4045C47.1885 17.778 46.14 18.132 44.673 19.008C44.244 19.2645 43.7745 19.557 43.272 19.884C41.001 19.3215 38.5575 19.035 36 19.035C33.417 19.035 30.9525 19.323 28.6665 19.8915C28.158 19.5615 27.6855 19.266 27.2535 19.008C25.7865 18.132 24.738 17.7795 23.628 17.4045L23.334 17.3055C22.4565 17.007 21.5235 16.944 20.895 16.944C20.442 16.944 20.1435 16.9755 20.1435 16.9755L19.6905 17.0235L19.2405 17.07L19.0725 17.4915L18.903 17.916C18.888 17.955 18.5535 18.807 18.2745 20.0025L18.234 20.175C17.979 21.2535 17.6625 22.5975 17.9445 24.6495C18.0165 25.1685 18.132 25.677 18.2895 26.166C16.362 28.665 15.3855 31.635 15.3855 35.001C15.3855 43.5435 19.5075 48.543 27.981 50.256C27.69 50.838 27.4635 51.453 27.303 52.092C27.0075 52.1925 26.736 52.26 26.496 52.2975C26.139 52.3515 25.7655 52.3785 25.3875 52.3785C24.3585 52.3785 23.55 52.1775 23.235 51.99C22.7655 51.711 21.927 50.8995 21.114 49.713C20.4195 48.7005 19.3365 47.376 18.126 46.8225C17.079 46.344 15.9705 46.0695 15.0825 46.0695C14.8755 46.0695 14.685 46.0845 14.5185 46.1115C13.743 46.2345 13.095 46.6605 12.7425 47.2815C12.438 47.817 12.39 48.441 12.6105 48.993C12.939 49.815 13.887 50.4705 14.625 50.8755C14.988 51.075 15.7725 51.804 16.23 52.539C16.5735 53.091 16.7325 53.484 16.953 54.027C17.0835 54.3495 17.2275 54.7005 17.4225 55.125C18.1275 56.658 20.328 58.011 20.577 58.1595C21.786 58.884 23.8185 59.1165 25.3125 59.184L25.497 59.1885H25.4985C25.8585 59.1885 26.3535 59.154 27.0045 59.082V63.0015C27.0075 63.795 26.199 63.975 25.1295 63.9585L25.95 64.2345C29.0925 65.358 32.4675 66 36 66C39.5325 66 42.9075 65.358 46.0545 64.236L47.109 63.843C46.0425 63.807 45.024 63.633 45.015 62.994Z" fill="black"/>
<path opacity="0.07" d="M46.1715 64.1955C45.5625 64.266 44.25 64.032 44.25 63.003V54.297C44.25 52.656 43.758 51.0705 42.846 49.719C51.7185 48.2835 55.8645 43.5795 55.8645 35.001C55.8645 31.6455 54.8355 28.71 52.806 26.268C53.0115 25.7205 53.1555 25.143 53.238 24.5475C53.5005 22.6335 53.214 21.4185 52.962 20.346L52.9215 20.172C52.6545 19.0305 52.3395 18.2265 52.326 18.1935L52.1595 17.7705L51.705 17.7225C51.705 17.7225 51.438 17.694 51.0315 17.694C50.46 17.694 49.6155 17.7495 48.8325 18.0165L48.5385 18.1155C47.4675 18.477 46.455 18.8175 45.057 19.6515C44.559 19.9485 44.004 20.298 43.4055 20.6925C41.106 20.091 38.6175 19.785 36 19.785C33.357 19.785 30.8475 20.0925 28.5315 20.7C27.927 20.3025 27.369 19.9515 26.868 19.6515C25.47 18.8175 24.4575 18.4755 23.3865 18.1155L23.0925 18.0165C22.311 17.751 21.465 17.694 20.8935 17.694C20.487 17.694 20.22 17.7225 20.22 17.7225L19.767 17.7705L19.5975 18.195C19.584 18.228 19.269 19.032 19.002 20.1735L18.9615 20.3475C18.708 21.42 18.4215 22.6335 18.6855 24.5475C18.7695 25.158 18.9195 25.749 19.1325 26.3085C17.142 28.7385 16.134 31.659 16.134 35.001C16.134 43.5555 20.283 48.258 29.163 49.71C28.5705 50.595 28.1565 51.5925 27.9435 52.656C27.4485 52.851 27 52.98 26.607 53.04C26.2125 53.1 25.8015 53.13 25.386 53.13C24.351 53.13 23.3565 52.9365 22.851 52.6365C22.191 52.245 21.2655 51.2655 20.493 50.139C19.968 49.374 18.9225 48.0135 17.811 47.5065C16.8585 47.0715 15.864 46.821 15.0795 46.821C14.9145 46.821 14.7645 46.833 14.6325 46.854C14.0835 46.941 13.6305 47.232 13.3905 47.655C13.1985 47.991 13.167 48.3795 13.302 48.717C13.5705 49.389 14.565 49.992 14.9805 50.22C15.483 50.496 16.359 51.336 16.8615 52.146C17.238 52.752 17.4165 53.1915 17.643 53.7465C17.7705 54.06 17.91 54.402 18.099 54.8145C18.5955 55.893 20.1285 57.0225 20.9565 57.519C22.0875 58.197 24.1875 58.386 25.3395 58.437L25.506 58.44C25.9545 58.44 26.706 58.3725 27.7485 58.2375V63.003C27.7485 64.1715 26.262 64.218 25.8975 64.218C25.851 64.218 26.652 64.494 26.652 64.494C29.5965 65.46 32.733 66 36 66C39.267 66 42.4035 65.46 45.3465 64.4955C45.3465 64.4955 46.218 64.1895 46.1715 64.1955Z" fill="black"/>
<path d="M55.116 35.001C55.116 31.536 53.943 28.662 51.9405 26.409C52.158 25.9215 52.3845 25.2675 52.497 24.4455C52.755 22.5705 52.4505 21.4455 52.1925 20.3445C51.9345 19.2435 51.63 18.4695 51.63 18.4695C51.63 18.4695 50.247 18.3285 49.0755 18.7275C47.904 19.1265 46.896 19.431 45.4425 20.298C44.763 20.703 44.079 21.147 43.5375 21.507C41.223 20.865 38.6775 20.535 36 20.535C33.2985 20.535 30.7305 20.8665 28.3995 21.513C27.8565 21.1515 27.168 20.7045 26.484 20.2965C25.0305 19.4295 24.0225 19.125 22.851 18.726C21.6795 18.327 20.2965 18.468 20.2965 18.468C20.2965 18.468 19.992 19.242 19.734 20.343C19.476 21.444 19.1715 22.569 19.4295 24.444C19.545 25.287 19.779 25.953 20.0025 26.4435C18.0375 28.683 16.8855 31.539 16.8855 34.9995C16.8855 43.974 21.7335 48.0705 30.567 49.152C29.5365 50.241 28.845 51.636 28.6125 53.1885C28.032 53.4435 27.363 53.6835 26.7195 53.7795C25.0635 54.03 23.313 53.7795 22.47 53.28C21.627 52.7805 20.6265 51.6555 19.8765 50.5605C19.2435 49.6365 18.33 48.564 17.502 48.186C16.4085 47.6865 15.345 47.499 14.7525 47.592C14.1585 47.6865 13.878 48.123 14.0025 48.4365C14.127 48.7485 14.721 49.218 15.3465 49.5615C15.972 49.905 16.941 50.8425 17.5035 51.7485C18.1305 52.7595 18.2535 53.343 18.7845 54.498C19.158 55.311 20.436 56.3265 21.3465 56.8725C22.128 57.342 23.6895 57.609 25.3785 57.6855C25.962 57.7125 27.3405 57.5415 28.503 57.3765V63.0015C28.503 63.96 27.6255 64.689 26.7165 64.521C29.634 65.502 32.7495 66 36 66C39.249 66 42.3645 65.502 45.285 64.524C44.3775 64.6905 43.5 63.9615 43.5 63.003V54.297C43.5 52.3035 42.7095 50.502 41.4405 49.1595C50.2095 48.1065 55.116 44.1075 55.116 35.001ZM16.8585 49.0905C16.6275 48.972 16.503 48.753 16.581 48.5985C16.659 48.444 16.911 48.4155 17.142 48.534C17.373 48.6525 17.4975 48.8715 17.4195 49.026C17.3415 49.1805 17.0895 49.209 16.8585 49.0905ZM18.6765 50.223C18.555 50.355 18.294 50.313 18.093 50.13C17.892 49.947 17.8275 49.6905 17.949 49.5585C18.0705 49.4265 18.3315 49.4685 18.5325 49.6515C18.7335 49.8345 18.798 50.091 18.6765 50.223ZM19.8075 52.098C19.6545 52.206 19.395 52.1055 19.2285 51.873C19.062 51.6405 19.0515 51.363 19.2045 51.255C19.3575 51.147 19.617 51.2475 19.7835 51.48C19.9485 51.7125 19.9605 51.99 19.8075 52.098ZM21.432 53.5095C21.3285 53.6775 21.0345 53.685 20.7765 53.5275C20.5185 53.37 20.3925 53.106 20.496 52.938C20.5995 52.77 20.8935 52.7625 21.1515 52.92C21.4095 53.0775 21.5355 53.3415 21.432 53.5095ZM22.968 54.891C22.6485 54.852 22.4115 54.6525 22.4385 54.4455C22.464 54.2385 22.7445 54.1035 23.0625 54.1425C23.382 54.1815 23.619 54.381 23.592 54.588C23.5665 54.7935 23.2875 54.93 22.968 54.891ZM25.4445 55.2495C25.104 55.23 24.8385 55.035 24.852 54.816C24.8655 54.597 25.152 54.4335 25.4925 54.453C25.833 54.4725 26.0985 54.6675 26.085 54.8865C26.0715 55.107 25.785 55.269 25.4445 55.2495ZM27.7815 55.0155C27.4185 55.0155 27.1245 54.8265 27.1245 54.594C27.1245 54.3615 27.4185 54.1725 27.7815 54.1725C28.1445 54.1725 28.4385 54.3615 28.4385 54.594C28.4385 54.8265 28.143 55.0155 27.7815 55.0155Z" fill="white"/>
<defs>
<linearGradient id="paint0_linear_13_377" x1="6" y1="35.262" x2="66" y2="35.262" gradientUnits="userSpaceOnUse">
<stop stop-color="#D676DE"/>
<stop offset="1" stop-color="#202020" stop-opacity="0.8"/>
</linearGradient>
</defs>
</svg>
