<svg width="72" height="72" viewBox="0 0 72 72" fill="none" xmlns="http://www.w3.org/2000/svg">
<path opacity="0.05" d="M45.015 62.9941L45 54.2971C45 52.8886 44.67 51.5131 44.037 50.2666C52.4985 48.5671 56.616 43.5646 56.616 35.0011C56.616 31.6186 55.6185 28.6321 53.652 26.1211C53.802 25.6456 53.913 25.1536 53.982 24.6496C54.264 22.5961 53.9475 21.2536 53.6925 20.1736L53.652 19.9996C53.373 18.8056 53.0385 17.9536 53.025 17.9176L52.8585 17.4946L52.692 17.0716L52.239 17.0236L51.7845 16.9756C51.7845 16.9756 51.486 16.9441 51.033 16.9441C50.4045 16.9441 49.473 17.0071 48.5925 17.3056L48.2985 17.4046C47.1885 17.7781 46.14 18.1321 44.673 19.0081C44.244 19.2646 43.7745 19.5571 43.272 19.8841C41.001 19.3216 38.5575 19.0351 36 19.0351C33.417 19.0351 30.9525 19.3231 28.6665 19.8916C28.158 19.5616 27.6855 19.2661 27.2535 19.0081C25.7865 18.1321 24.738 17.7796 23.628 17.4046L23.334 17.3056C22.4565 17.0071 21.5235 16.9441 20.895 16.9441C20.442 16.9441 20.1435 16.9756 20.1435 16.9756L19.6905 17.0236L19.2405 17.0701L19.0725 17.4916L18.903 17.9161C18.888 17.9551 18.5535 18.8071 18.2745 20.0026L18.234 20.1751C17.979 21.2536 17.6625 22.5976 17.9445 24.6496C18.0165 25.1686 18.132 25.6771 18.2895 26.1661C16.362 28.6651 15.3855 31.6351 15.3855 35.0011C15.3855 43.5436 19.5075 48.5431 27.981 50.2561C27.69 50.8381 27.4635 51.4531 27.303 52.0921C27.0075 52.1926 26.736 52.2601 26.496 52.2976C26.139 52.3516 25.7655 52.3786 25.3875 52.3786C24.3585 52.3786 23.55 52.1776 23.235 51.9901C22.7655 51.7111 21.927 50.8996 21.114 49.7131C20.4195 48.7006 19.3365 47.3761 18.126 46.8226C17.079 46.3441 15.9705 46.0696 15.0825 46.0696C14.8755 46.0696 14.685 46.0846 14.5185 46.1116C13.743 46.2346 13.095 46.6606 12.7425 47.2816C12.438 47.8171 12.39 48.4411 12.6105 48.9931C12.939 49.8151 13.887 50.4706 14.625 50.8756C14.988 51.0751 15.7725 51.8041 16.23 52.5391C16.5735 53.0911 16.7325 53.4841 16.953 54.0271C17.0835 54.3496 17.2275 54.7006 17.4225 55.1251C18.1275 56.6581 20.328 58.0111 20.577 58.1596C21.786 58.8841 23.8185 59.1166 25.3125 59.1841L25.497 59.1886H25.4985C25.8585 59.1886 26.3535 59.1541 27.0045 59.0821V63.0016C27.0075 63.7951 26.199 63.9751 25.1295 63.9586L25.95 64.2346C29.0925 65.3581 32.4675 66.0001 36 66.0001C39.5325 66.0001 42.9075 65.3581 46.0545 64.2361L47.109 63.8431C46.0425 63.8071 45.024 63.6331 45.015 62.9941Z" fill="black"/>
<path opacity="0.07" d="M46.1715 64.1956C45.5625 64.2661 44.25 64.0321 44.25 63.0031V54.2971C44.25 52.6561 43.758 51.0706 42.846 49.7191C51.7185 48.2836 55.8645 43.5796 55.8645 35.0011C55.8645 31.6456 54.8355 28.7101 52.806 26.2681C53.0115 25.7206 53.1555 25.1431 53.238 24.5476C53.5005 22.6336 53.214 21.4186 52.962 20.3461L52.9215 20.1721C52.6545 19.0306 52.3395 18.2266 52.326 18.1936L52.1595 17.7706L51.705 17.7226C51.705 17.7226 51.438 17.6941 51.0315 17.6941C50.46 17.6941 49.6155 17.7496 48.8325 18.0166L48.5385 18.1156C47.4675 18.4771 46.455 18.8176 45.057 19.6516C44.559 19.9486 44.004 20.2981 43.4055 20.6926C41.106 20.0911 38.6175 19.7851 36 19.7851C33.357 19.7851 30.8475 20.0926 28.5315 20.7001C27.927 20.3026 27.369 19.9516 26.868 19.6516C25.47 18.8176 24.4575 18.4756 23.3865 18.1156L23.0925 18.0166C22.311 17.7511 21.465 17.6941 20.8935 17.6941C20.487 17.6941 20.22 17.7226 20.22 17.7226L19.767 17.7706L19.5975 18.1951C19.584 18.2281 19.269 19.0321 19.002 20.1736L18.9615 20.3476C18.708 21.4201 18.4215 22.6336 18.6855 24.5476C18.7695 25.1581 18.9195 25.7491 19.1325 26.3086C17.142 28.7386 16.134 31.6591 16.134 35.0011C16.134 43.5556 20.283 48.2581 29.163 49.7101C28.5705 50.5951 28.1565 51.5926 27.9435 52.6561C27.4485 52.8511 27 52.9801 26.607 53.0401C26.2125 53.1001 25.8015 53.1301 25.386 53.1301C24.351 53.1301 23.3565 52.9366 22.851 52.6366C22.191 52.2451 21.2655 51.2656 20.493 50.1391C19.968 49.3741 18.9225 48.0136 17.811 47.5066C16.8585 47.0716 15.864 46.8211 15.0795 46.8211C14.9145 46.8211 14.7645 46.8331 14.6325 46.8541C14.0835 46.9411 13.6305 47.2321 13.3905 47.6551C13.1985 47.9911 13.167 48.3796 13.302 48.7171C13.5705 49.3891 14.565 49.9921 14.9805 50.2201C15.483 50.4961 16.359 51.3361 16.8615 52.1461C17.238 52.7521 17.4165 53.1916 17.643 53.7466C17.7705 54.0601 17.91 54.4021 18.099 54.8146C18.5955 55.8931 20.1285 57.0226 20.9565 57.5191C22.0875 58.1971 24.1875 58.3861 25.3395 58.4371L25.506 58.4401C25.9545 58.4401 26.706 58.3726 27.7485 58.2376V63.0031C27.7485 64.1716 26.262 64.2181 25.8975 64.2181C25.851 64.2181 26.652 64.4941 26.652 64.4941C29.5965 65.4601 32.733 66.0001 36 66.0001C39.267 66.0001 42.4035 65.4601 45.3465 64.4956C45.3465 64.4956 46.218 64.1896 46.1715 64.1956Z" fill="black"/>
<path d="M55.116 35.001C55.116 31.536 53.943 28.662 51.9405 26.409C52.158 25.9215 52.3845 25.2675 52.497 24.4455C52.755 22.5705 52.4505 21.4455 52.1925 20.3445C51.9345 19.2435 51.63 18.4695 51.63 18.4695C51.63 18.4695 50.247 18.3285 49.0755 18.7275C47.904 19.1265 46.896 19.431 45.4425 20.298C44.763 20.703 44.079 21.147 43.5375 21.507C41.223 20.865 38.6775 20.535 36 20.535C33.2985 20.535 30.7305 20.8665 28.3995 21.513C27.8565 21.1515 27.168 20.7045 26.484 20.2965C25.0305 19.4295 24.0225 19.125 22.851 18.726C21.6795 18.327 20.2965 18.468 20.2965 18.468C20.2965 18.468 19.992 19.242 19.734 20.343C19.476 21.444 19.1715 22.569 19.4295 24.444C19.545 25.287 19.779 25.953 20.0025 26.4435C18.0375 28.683 16.8855 31.539 16.8855 34.9995C16.8855 43.974 21.7335 48.0705 30.567 49.152C29.5365 50.241 28.845 51.636 28.6125 53.1885C28.032 53.4435 27.363 53.6835 26.7195 53.7795C25.0635 54.03 23.313 53.7795 22.47 53.28C21.627 52.7805 20.6265 51.6555 19.8765 50.5605C19.2435 49.6365 18.33 48.564 17.502 48.186C16.4085 47.6865 15.345 47.499 14.7525 47.592C14.1585 47.6865 13.878 48.123 14.0025 48.4365C14.127 48.7485 14.721 49.218 15.3465 49.5615C15.972 49.905 16.941 50.8425 17.5035 51.7485C18.1305 52.7595 18.2535 53.343 18.7845 54.498C19.158 55.311 20.436 56.3265 21.3465 56.8725C22.128 57.342 23.6895 57.609 25.3785 57.6855C25.962 57.7125 27.3405 57.5415 28.503 57.3765V63.0015C28.503 63.96 27.6255 64.689 26.7165 64.521C29.634 65.502 32.7495 66 36 66C39.249 66 42.3645 65.502 45.285 64.524C44.3775 64.6905 43.5 63.9615 43.5 63.003V54.297C43.5 52.3035 42.7095 50.502 41.4405 49.1595C50.2095 48.1065 55.116 44.1075 55.116 35.001ZM16.8585 49.0905C16.6275 48.972 16.503 48.753 16.581 48.5985C16.659 48.444 16.911 48.4155 17.142 48.534C17.373 48.6525 17.4975 48.8715 17.4195 49.026C17.3415 49.1805 17.0895 49.209 16.8585 49.0905ZM18.6765 50.223C18.555 50.355 18.294 50.313 18.093 50.13C17.892 49.947 17.8275 49.6905 17.949 49.5585C18.0705 49.4265 18.3315 49.4685 18.5325 49.6515C18.7335 49.8345 18.798 50.091 18.6765 50.223ZM19.8075 52.098C19.6545 52.206 19.395 52.1055 19.2285 51.873C19.062 51.6405 19.0515 51.363 19.2045 51.255C19.3575 51.147 19.617 51.2475 19.7835 51.48C19.9485 51.7125 19.9605 51.99 19.8075 52.098ZM21.432 53.5095C21.3285 53.6775 21.0345 53.685 20.7765 53.5275C20.5185 53.37 20.3925 53.106 20.496 52.938C20.5995 52.77 20.8935 52.7625 21.1515 52.92C21.4095 53.0775 21.5355 53.3415 21.432 53.5095ZM22.968 54.891C22.6485 54.852 22.4115 54.6525 22.4385 54.4455C22.464 54.2385 22.7445 54.1035 23.0625 54.1425C23.382 54.1815 23.619 54.381 23.592 54.588C23.5665 54.7935 23.2875 54.93 22.968 54.891ZM25.4445 55.2495C25.104 55.23 24.8385 55.035 24.852 54.816C24.8655 54.597 25.152 54.4335 25.4925 54.453C25.833 54.4725 26.0985 54.6675 26.085 54.8865C26.0715 55.107 25.785 55.269 25.4445 55.2495ZM27.7815 55.0155C27.4185 55.0155 27.1245 54.8265 27.1245 54.594C27.1245 54.3615 27.4185 54.1725 27.7815 54.1725C28.1445 54.1725 28.4385 54.3615 28.4385 54.594C28.4385 54.8265 28.143 55.0155 27.7815 55.0155Z" fill="white"/>
</svg>
