<svg width="63" height="66" viewBox="0 0 63 66" fill="none" xmlns="http://www.w3.org/2000/svg">
<path d="M31.5 56.9547C44.5477 56.9547 55.125 46.0263 55.125 32.5456C55.125 19.0648 44.5477 8.13647 31.5 8.13647C18.4523 8.13647 7.875 19.0648 7.875 32.5456C7.875 46.0263 18.4523 56.9547 31.5 56.9547Z" stroke="white" stroke-width="2" stroke-miterlimit="10"/>
<path d="M9.22852 24.4092H53.7715" stroke="white" stroke-width="2" stroke-linecap="round" stroke-linejoin="round"/>
<path d="M9.22852 40.6819H53.7715" stroke="white" stroke-width="2" stroke-linecap="round" stroke-linejoin="round"/>
<path d="M31.5 56.2936C36.9366 56.2936 41.3438 45.6613 41.3438 32.5456C41.3438 19.43 36.9366 8.79761 31.5 8.79761C26.0634 8.79761 21.6562 19.43 21.6562 32.5456C21.6562 45.6613 26.0634 56.2936 31.5 56.2936Z" stroke="white" stroke-width="2" stroke-miterlimit="10"/>
</svg>
