<svg id="visual" viewBox="0 0 900 600" width="900" height="600" xmlns="http://www.w3.org/2000/svg" xmlns:xlink="http://www.w3.org/1999/xlink" version="1.1"><path d="M0 441L21.5 438.8C43 436.7 86 432.3 128.8 428.7C171.7 425 214.3 422 257.2 420.7C300 419.3 343 419.7 385.8 422.3C428.7 425 471.3 430 514.2 430.3C557 430.7 600 426.3 642.8 426.5C685.7 426.7 728.3 431.3 771.2 432C814 432.7 857 429.3 878.5 427.7L900 426L900 601L878.5 601C857 601 814 601 771.2 601C728.3 601 685.7 601 642.8 601C600 601 557 601 514.2 601C471.3 601 428.7 601 385.8 601C343 601 300 601 257.2 601C214.3 601 171.7 601 128.8 601C86 601 43 601 21.5 601L0 601Z" fill="#d676de"></path><path d="M0 457L21.5 456.8C43 456.7 86 456.3 128.8 459.7C171.7 463 214.3 470 257.2 472.2C300 474.3 343 471.7 385.8 473.2C428.7 474.7 471.3 480.3 514.2 484.2C557 488 600 490 642.8 490.5C685.7 491 728.3 490 771.2 486.8C814 483.7 857 478.3 878.5 475.7L900 473L900 601L878.5 601C857 601 814 601 771.2 601C728.3 601 685.7 601 642.8 601C600 601 557 601 514.2 601C471.3 601 428.7 601 385.8 601C343 601 300 601 257.2 601C214.3 601 171.7 601 128.8 601C86 601 43 601 21.5 601L0 601Z" fill="#d166e0"></path><path d="M0 504L21.5 506C43 508 86 512 128.8 515C171.7 518 214.3 520 257.2 517.3C300 514.7 343 507.3 385.8 504C428.7 500.7 471.3 501.3 514.2 504.5C557 507.7 600 513.3 642.8 512.5C685.7 511.7 728.3 504.3 771.2 502.5C814 500.7 857 504.3 878.5 506.2L900 508L900 601L878.5 601C857 601 814 601 771.2 601C728.3 601 685.7 601 642.8 601C600 601 557 601 514.2 601C471.3 601 428.7 601 385.8 601C343 601 300 601 257.2 601C214.3 601 171.7 601 128.8 601C86 601 43 601 21.5 601L0 601Z" fill="#cb54e2"></path><path d="M0 537L21.5 537C43 537 86 537 128.8 539.2C171.7 541.3 214.3 545.7 257.2 546.2C300 546.7 343 543.3 385.8 543.2C428.7 543 471.3 546 514.2 549.2C557 552.3 600 555.7 642.8 554.2C685.7 552.7 728.3 546.3 771.2 544.8C814 543.3 857 546.7 878.5 548.3L900 550L900 601L878.5 601C857 601 814 601 771.2 601C728.3 601 685.7 601 642.8 601C600 601 557 601 514.2 601C471.3 601 428.7 601 385.8 601C343 601 300 601 257.2 601C214.3 601 171.7 601 128.8 601C86 601 43 601 21.5 601L0 601Z" fill="#c440e5"></path></svg>