<svg width="65" height="65" viewBox="0 0 65 65" fill="none" xmlns="http://www.w3.org/2000/svg">
<path d="M32.5 9.58333C26.4221 9.58333 20.5932 11.9978 16.2954 16.2955C11.9977 20.5932 9.58331 26.4221 9.58331 32.5C9.58331 38.5779 11.9977 44.4068 16.2954 48.7045C20.5932 53.0022 26.4221 55.4167 32.5 55.4167C38.5779 55.4167 44.4068 53.0022 48.7045 48.7045C53.0022 44.4068 55.4166 38.5779 55.4166 32.5C55.4166 26.4221 53.0022 20.5932 48.7045 16.2955C44.4068 11.9978 38.5779 9.58333 32.5 9.58333Z" fill="#0288D1"/>
<path d="M21.0417 26.7708H25.625V43.9583H21.0417V26.7708ZM23.3196 24.4792H23.2944C21.9263 24.4792 21.0417 23.4594 21.0417 22.1863C21.0417 20.8858 21.9538 19.8958 23.346 19.8958C24.7404 19.8958 25.5987 20.8858 25.625 22.1863C25.625 23.4594 24.7404 24.4792 23.3196 24.4792ZM45.1042 33.0729C45.1042 29.5919 42.2831 26.7708 38.8021 26.7708C36.6686 26.7708 34.786 27.8342 33.6459 29.4567V26.7708H29.0625V43.9583H33.6459V34.7917C33.6459 32.893 35.1847 31.3542 37.0834 31.3542C38.982 31.3542 40.5209 32.893 40.5209 34.7917V43.9583H45.1042C45.1042 43.9583 45.1042 33.5553 45.1042 33.0729Z" fill="white"/>
</svg>
