<svg width="137" height="137" viewBox="0 0 137 137" fill="none" xmlns="http://www.w3.org/2000/svg">
<g clip-path="url(#clip0_12_107)">
<mask id="mask0_12_107" style="mask-type:luminance" maskUnits="userSpaceOnUse" x="0" y="0" width="137" height="137">
<path d="M136.286 0H0.214287V136.071H136.286V0Z" fill="white"/>
</mask>
<g mask="url(#mask0_12_107)">
<path d="M63.7942 0.0366227C63.5017 0.063225 62.5702 0.156334 61.7322 0.22284C42.4057 1.9653 24.3028 12.3934 12.8371 28.4214C6.45254 37.3332 2.36909 47.4422 0.826143 58.1496C0.280793 61.8876 0.214287 62.9914 0.214287 68.059C0.214287 73.127 0.280793 74.2309 0.826143 77.9684C4.52388 103.52 22.7067 124.988 47.3671 132.942C51.7831 134.365 56.4385 135.337 61.7322 135.922C63.7942 136.148 72.7058 136.148 74.7678 135.922C83.9056 134.911 91.6469 132.65 99.2817 128.752C100.452 128.154 100.678 127.994 100.519 127.861C100.412 127.781 95.4246 121.091 89.4386 113.004L78.5585 98.3059L64.9248 78.1282C57.4227 67.035 51.2511 57.9636 51.1979 57.9636C51.1446 57.95 51.0915 66.9154 51.0648 77.8618C51.0249 97.0291 51.0116 97.8008 50.7722 98.2526C50.4264 98.9046 50.1603 99.1706 49.6017 99.4631C49.1761 99.6763 48.8036 99.716 46.7952 99.716H44.494L43.8822 99.3304C43.4831 99.0776 43.1905 98.7448 42.991 98.3592L42.7117 97.7605L42.7383 71.0916L42.7782 44.4095L43.1905 43.8907C43.4034 43.6114 43.8556 43.2523 44.1748 43.0794C44.7201 42.8133 44.933 42.7868 47.2341 42.7868C49.9475 42.7868 50.3998 42.8931 51.1047 43.6646C51.3042 43.8774 58.6865 54.9972 67.5186 68.3918C76.3502 81.7857 88.4277 100.075 94.3604 109.053L105.134 125.374L105.68 125.015C110.508 121.876 115.616 117.406 119.659 112.751C128.265 102.868 133.811 90.8175 135.674 77.9684C136.219 74.2309 136.286 73.127 136.286 68.059C136.286 62.9914 136.219 61.8876 135.674 58.1496C131.976 32.598 113.793 11.1298 89.133 3.17571C84.7832 1.76578 80.1545 0.794793 74.9674 0.209539C73.69 0.0765265 64.8981 -0.0697871 63.7942 0.0366227ZM91.6469 41.1906C92.2853 41.5098 92.8041 42.1216 92.9901 42.7601C93.0966 43.106 93.1233 50.5014 93.0966 67.1677L93.057 91.0834L88.8404 84.6188L84.6103 78.1549V60.7701C84.6103 49.5305 84.6636 43.2124 84.7436 42.9064C84.9562 42.1616 85.4217 41.5763 86.0601 41.2305C86.6055 40.9511 86.805 40.9246 88.8937 40.9246C90.8622 40.9246 91.2081 40.9511 91.6469 41.1906Z" fill="black"/>
</g>
</g>
<defs>
<clipPath id="clip0_12_107">
<rect width="136.071" height="136.071" fill="white" transform="translate(0.214287)"/>
</clipPath>
</defs>
</svg>
