<svg width="137" height="137" viewBox="0 0 137 137" fill="none" xmlns="http://www.w3.org/2000/svg">
<g clip-path="url(#clip0_11_8)">
<path d="M68.5378 77.8894C73.796 77.8894 78.0586 73.6268 78.0586 68.3686C78.0586 63.1105 73.796 58.8479 68.5378 58.8479C63.2797 58.8479 59.0171 63.1105 59.0171 68.3686C59.0171 73.6268 63.2797 77.8894 68.5378 77.8894Z" fill="#00D8FF"/>
<path fill-rule="evenodd" clip-rule="evenodd" d="M69.2373 48.3002C85.4702 48.4107 103.181 49.595 115.338 60.4361C115.695 60.755 116.04 61.0866 116.375 61.4289C119.244 64.3524 120.742 69.0723 118.427 72.9567C113.677 80.9318 103.055 84.4101 92.7713 86.5511C77.391 89.7531 61.309 89.7786 45.9351 86.9594C37.0883 85.335 28.0417 82.4881 21.7548 76.5329C19.3076 74.2154 17.2155 71.1666 17.5429 67.7733C18.0745 62.2836 23.3409 58.7607 27.7738 56.3752C40.0861 49.7502 55.088 48.2683 69.2373 48.3002ZM68.0594 50.7941C52.7004 50.8983 36.0763 51.8784 24.2168 61.699C23.8022 62.0413 23.4025 62.4006 23.0177 62.7769C22.7689 63.0193 22.5287 63.2723 22.2969 63.5317C20.2155 65.8704 19.499 69.6273 21.4635 72.4358C23.4408 75.2615 26.4429 77.3004 29.5342 78.963C41.096 85.1798 54.7585 86.2832 68.0786 86.33C81.5645 86.3789 95.4715 85.15 107.384 78.9907C112.13 76.535 117.47 72.9291 117.281 68.2857C117.107 64.0249 112.952 61.3928 109.842 59.5133C109 59.0052 108.135 58.5353 107.257 58.0931C95.4311 52.1676 81.573 50.7643 68.0594 50.7941Z" fill="#00D8FF"/>
<path fill-rule="evenodd" clip-rule="evenodd" d="M90.0414 23.1844C95.9796 23.3353 99.0561 30.4748 99.4622 35.7476C99.543 36.7958 99.5727 37.8482 99.56 38.9006C99.5472 40.0402 99.4856 41.1798 99.3856 42.3152C98.1334 56.3731 91.7146 69.7612 84.1563 82.1246C76.7638 94.2179 67.749 106.277 55.4856 111.882C51.4311 113.736 46.6091 114.88 43.0202 112.811C38.1004 109.977 37.5625 103.347 37.6539 98.3192C37.6773 97.0839 37.7581 95.8487 37.8856 94.6176C39.7757 76.4181 49.001 59.1774 60.5458 44.3244C67.2813 35.6583 75.2946 27.0624 85.2767 23.9498C86.8479 23.4587 88.096 23.161 90.0414 23.1844ZM89.7565 25.6762C82.7849 25.7868 76.5257 30.9532 70.9829 36.3217C56.4105 50.4327 45.6715 69.1999 41.3512 88.8814C41.0174 90.4058 40.7367 91.9409 40.5305 93.4865C40.371 94.6835 40.2541 95.8869 40.1925 97.0946C40.1436 98.0556 40.1265 99.0187 40.1563 99.9818C40.1776 100.734 40.2265 101.487 40.3094 102.236C40.3711 102.807 40.454 103.377 40.5581 103.943C40.6368 104.362 40.7282 104.778 40.8345 105.193C40.9217 105.529 41.0195 105.863 41.1301 106.194C41.9997 108.816 44.2406 111.32 47.249 111.403C54.2673 111.595 60.8753 106.477 66.5882 100.915C76.6171 91.1542 84.0904 78.8886 89.9287 65.9959C94.6402 55.5864 98.9498 44.2712 96.543 32.8136C96.4516 32.3798 96.3453 31.9504 96.2241 31.5251C96.1242 31.1786 96.0115 30.8363 95.8882 30.4982C94.9527 27.949 92.7522 25.6698 89.7565 25.6762Z" fill="#00D8FF"/>
<path fill-rule="evenodd" clip-rule="evenodd" d="M47.5063 23.2779C55.0837 23.4246 61.8894 28.5677 67.9319 34.3273C78.9579 44.8367 87.0903 58.2057 93.2603 72.2764C98.0398 83.177 102.437 95.4128 98.5288 106.915C97.2978 110.54 94.183 113.857 90.0307 113.942C82.4171 114.095 75.3605 108.559 69.2373 102.599C53.8761 87.6439 42.4716 67.9008 38.5638 46.9628C38.2832 45.466 38.0599 43.9565 37.9069 42.4406C37.7814 41.2032 37.7028 39.9594 37.6815 38.7156C37.6645 37.7121 37.6857 36.7086 37.7559 35.7093C37.8027 35.0417 37.8707 34.3784 37.9621 33.7171C38.0493 33.0963 38.1599 32.4776 38.2981 31.8653C38.3895 31.4592 38.4915 31.0574 38.6085 30.6576C39.7545 26.7392 42.7353 23.2481 47.5063 23.2779ZM47.2192 25.7718C42.782 25.8696 40.7516 31.102 40.3434 34.7738C40.2605 35.5265 40.2094 36.2855 40.1861 37.0445C40.1563 38.014 40.169 38.9856 40.2179 39.9552C40.9153 53.9854 47.1874 67.55 54.7563 79.9708C61.8831 91.6644 70.4896 103.311 82.3278 109.298C85.7466 111.027 89.901 112.386 92.8542 110.753C96.5579 108.703 97.0129 103.819 97.2106 100.18C97.2638 99.1888 97.2701 98.1937 97.2383 97.2008C97.2 95.9549 97.1022 94.7112 96.9555 93.4737C95.5905 81.9141 90.4708 70.9752 84.59 60.638C77.2719 47.7793 68.3061 34.963 55.6174 28.2679C52.9895 26.8817 50.1448 25.7484 47.2192 25.7718Z" fill="#00D8FF"/>
</g>
<defs>
<clipPath id="clip0_11_8">
<rect width="136.071" height="136.071" fill="white" transform="translate(0.5 0.428589)"/>
</clipPath>
</defs>
</svg>
