<?xml version="1.0" standalone="no"?><svg xmlns="http://www.w3.org/2000/svg" viewBox="0 0 1440 320"><path fill="#0099ff" fill-opacity="1" d="M0,32L20,64C40,96,80,160,120,170.7C160,181,200,139,240,149.3C280,160,320,224,360,240C400,256,440,224,480,192C520,160,560,128,600,112C640,96,680,96,720,128C760,160,800,224,840,240C880,256,920,224,960,208C1000,192,1040,192,1080,192C1120,192,1160,192,1200,213.3C1240,235,1280,277,1320,277.3C1360,277,1400,235,1420,213.3L1440,192L1440,320L1420,320C1400,320,1360,320,1320,320C1280,320,1240,320,1200,320C1160,320,1120,320,1080,320C1040,320,1000,320,960,320C920,320,880,320,840,320C800,320,760,320,720,320C680,320,640,320,600,320C560,320,520,320,480,320C440,320,400,320,360,320C320,320,280,320,240,320C200,320,160,320,120,320C80,320,40,320,20,320L0,320Z"></path></svg>